<svg xmlns="http://www.w3.org/2000/svg" xmlns:xlink="http://www.w3.org/1999/xlink" viewBox="0 0 2804.78 2800"><defs><style>.cls-1{fill:none;}.cls-2{isolation:isolate;}.cls-3{fill:url(#linear-gradient);}.cls-4{opacity:0.84;}.cls-5{fill:#91b3fa;}.cls-6{fill:#bdd0fb;}.cls-7{fill:url(#linear-gradient-2);}.cls-8{fill:#7d97f4;}.cls-11,.cls-9{fill:#fff;}.cls-9{opacity:0.17;}.cls-10{opacity:0.68;}.cls-11{mix-blend-mode:soft-light;}.cls-12{fill:url(#linear-gradient-3);}.cls-13{fill:url(#linear-gradient-4);}.cls-14{fill:url(#linear-gradient-5);}.cls-15{clip-path:url(#clip-path);}.cls-16{fill:url(#linear-gradient-6);}.cls-17{fill:url(#linear-gradient-7);}.cls-18{opacity:0.6;fill:url(#linear-gradient-8);}.cls-18,.cls-24{mix-blend-mode:multiply;}.cls-19{fill:url(#linear-gradient-9);}.cls-20{fill:url(#linear-gradient-10);}.cls-21{fill:url(#linear-gradient-11);}.cls-22{fill:url(#linear-gradient-12);}.cls-23{fill:url(#linear-gradient-13);}.cls-24{opacity:0.3;fill:url(#linear-gradient-14);}.cls-25{fill:url(#linear-gradient-15);}.cls-26{fill:url(#linear-gradient-16);}.cls-27{fill:url(#linear-gradient-17);}.cls-28{fill:url(#linear-gradient-18);}.cls-29{fill:url(#linear-gradient-19);}.cls-30{fill:url(#linear-gradient-20);}.cls-31{fill:url(#linear-gradient-21);}.cls-32{fill:url(#linear-gradient-22);}.cls-33{fill:url(#linear-gradient-23);}.cls-34{fill:url(#linear-gradient-24);}.cls-35{fill:url(#linear-gradient-25);}.cls-36{fill:url(#linear-gradient-26);}.cls-37{fill:url(#linear-gradient-27);}.cls-38{fill:url(#linear-gradient-28);}.cls-39{fill:url(#linear-gradient-29);}.cls-40{fill:url(#linear-gradient-30);}.cls-41{fill:url(#linear-gradient-31);}.cls-42{fill:url(#linear-gradient-32);}.cls-43{fill:url(#linear-gradient-33);}.cls-44{fill:url(#linear-gradient-34);}.cls-45{fill:url(#linear-gradient-35);}.cls-46{fill:url(#linear-gradient-36);}.cls-47{fill:url(#linear-gradient-37);}.cls-48{fill:url(#linear-gradient-38);}.cls-49{fill:url(#linear-gradient-39);}.cls-50{fill:url(#linear-gradient-40);}.cls-51{fill:url(#linear-gradient-41);}.cls-52{fill:url(#linear-gradient-42);}.cls-53{fill:url(#linear-gradient-43);}.cls-54{fill:url(#linear-gradient-44);}.cls-55{fill:url(#linear-gradient-45);}.cls-56{fill:url(#linear-gradient-46);}.cls-57{fill:url(#linear-gradient-47);}.cls-58{fill:url(#linear-gradient-48);}.cls-59{fill:url(#linear-gradient-49);}.cls-60{fill:url(#linear-gradient-50);}.cls-61{fill:url(#linear-gradient-51);}.cls-62{fill:url(#linear-gradient-52);}.cls-63{fill:url(#linear-gradient-53);}.cls-64{fill:url(#linear-gradient-54);}.cls-65{fill:url(#linear-gradient-55);}.cls-66{fill:url(#linear-gradient-56);}.cls-67{fill:url(#linear-gradient-57);}.cls-68{fill:url(#linear-gradient-58);}.cls-69{fill:url(#linear-gradient-59);}.cls-70{fill:url(#linear-gradient-60);}.cls-71{fill:url(#linear-gradient-61);}.cls-72{fill:url(#linear-gradient-62);}.cls-73{fill:url(#linear-gradient-63);}.cls-74{fill:url(#linear-gradient-64);}.cls-75{fill:url(#linear-gradient-65);}.cls-76{fill:url(#linear-gradient-66);}.cls-77{fill:url(#linear-gradient-67);}.cls-78{fill:url(#linear-gradient-68);}.cls-79{fill:url(#linear-gradient-69);}.cls-80{fill:url(#linear-gradient-70);}.cls-81{fill:url(#linear-gradient-71);}.cls-82{fill:url(#linear-gradient-72);}.cls-83{fill:url(#linear-gradient-73);}.cls-84{fill:url(#linear-gradient-74);}.cls-85{fill:url(#linear-gradient-75);}.cls-86{fill:url(#linear-gradient-76);}.cls-87{fill:url(#linear-gradient-77);}.cls-88{fill:url(#linear-gradient-78);}.cls-89{fill:url(#linear-gradient-79);}.cls-90{fill:url(#linear-gradient-80);}.cls-91{fill:url(#linear-gradient-81);}</style><linearGradient id="linear-gradient" x1="3477.82" y1="3288.76" x2="1391.16" y2="1462.93" gradientUnits="userSpaceOnUse"><stop offset="0" stop-color="#dae3fe"/><stop offset="1" stop-color="#e9effd"/></linearGradient><linearGradient id="linear-gradient-2" x1="609.32" y1="1457.72" x2="1109.25" y2="1457.72" xlink:href="#linear-gradient"/><linearGradient id="linear-gradient-3" x1="2118.46" y1="1080.53" x2="3106.71" y2="1080.53" gradientTransform="translate(1529.26 -1530.89) rotate(45)" xlink:href="#linear-gradient"/><linearGradient id="linear-gradient-4" x1="3929.36" y1="-16.78" x2="3605.39" y2="253.19" gradientTransform="translate(1529.26 -1530.89) rotate(45)" gradientUnits="userSpaceOnUse"><stop offset="0" stop-color="#09005d"/><stop offset="1" stop-color="#1a0f91"/></linearGradient><linearGradient id="linear-gradient-5" x1="2197.86" y1="1090.94" x2="3006.49" y2="1090.94" gradientTransform="translate(1533.57 -1520.49) rotate(45)" gradientUnits="userSpaceOnUse"><stop offset="0" stop-color="#4f52ff"/><stop offset="1" stop-color="#4042e2"/></linearGradient><clipPath id="clip-path" transform="translate(-452.61 -455)"><path class="cls-1" d="M2905.22,850c-155.45-159.69-417.5-175.31-585.65-26.53-173.4,153.43-173.4,414.93,0,575.09,168.15,155.29,430.2,149.83,585.65-3.84C3056.2,1245.51,3056.2,1005.13,2905.22,850Z"/></clipPath><linearGradient id="linear-gradient-6" x1="6816.43" y1="-28.86" x2="6882.83" y2="1362.55" gradientTransform="matrix(-1, 0, 0, 1, 9484.01, 0)" gradientUnits="userSpaceOnUse"><stop offset="0" stop-color="#febbba"/><stop offset="1" stop-color="#ff928e"/></linearGradient><linearGradient id="linear-gradient-7" x1="6835.24" y1="606.95" x2="6868.99" y2="1314.03" xlink:href="#linear-gradient-6"/><linearGradient id="linear-gradient-8" x1="7170.31" y1="487.94" x2="6649.09" y2="1413.99" xlink:href="#linear-gradient-6"/><linearGradient id="linear-gradient-9" x1="5448.07" y1="2089.58" x2="5555.95" y2="2089.58" gradientTransform="matrix(-0.77, -0.64, -0.52, 0.71, 8110.3, 3112.19)" xlink:href="#linear-gradient-6"/><linearGradient id="linear-gradient-10" x1="5551.86" y1="2086.24" x2="5663.65" y2="2086.24" gradientTransform="matrix(-0.76, -0.63, -0.52, 0.71, 8085.91, 3080.24)" xlink:href="#linear-gradient-6"/><linearGradient id="linear-gradient-11" x1="5662.16" y1="2086.13" x2="5777.11" y2="2086.13" gradientTransform="matrix(-0.76, -0.63, -0.52, 0.71, 8085.91, 3080.24)" xlink:href="#linear-gradient-6"/><linearGradient id="linear-gradient-12" x1="5773.1" y1="2107.51" x2="5879.77" y2="2107.51" gradientTransform="matrix(-0.76, -0.63, -0.52, 0.71, 8085.91, 3080.24)" xlink:href="#linear-gradient-6"/><linearGradient id="linear-gradient-13" x1="2403.11" y1="23.07" x2="2469.6" y2="1416.54" gradientTransform="matrix(1, 0, 0, 1, 0, 0)" xlink:href="#linear-gradient-6"/><linearGradient id="linear-gradient-14" x1="2547.26" y1="1487.34" x2="2487.06" y2="802.01" gradientTransform="matrix(1, 0, 0, 1, 0, 0)" xlink:href="#linear-gradient-6"/><linearGradient id="linear-gradient-15" x1="2829.44" y1="3204.29" x2="2933.75" y2="3204.29" gradientTransform="translate(-1193.78)" xlink:href="#linear-gradient-4"/><linearGradient id="linear-gradient-16" x1="2512.48" y1="4483.01" x2="2689.05" y2="3889.29" gradientTransform="translate(-1193.78)" xlink:href="#linear-gradient-4"/><linearGradient id="linear-gradient-17" x1="1809.83" y1="3081.88" x2="1789.01" y2="3263.63" gradientTransform="matrix(-1, 0, 0, 1, 3479.72, 0)" xlink:href="#linear-gradient-6"/><linearGradient id="linear-gradient-18" x1="100.34" y1="9864.57" x2="276.91" y2="9270.85" gradientTransform="matrix(-1, 0, 0, 1, 3479.72, 0)" xlink:href="#linear-gradient-4"/><linearGradient id="linear-gradient-19" x1="1997.46" y1="3205.77" x2="2144.27" y2="3205.77" gradientTransform="matrix(-1, 0, 0, 1, 3479.72, 0)" xlink:href="#linear-gradient-4"/><linearGradient id="linear-gradient-20" x1="2029.21" y1="3105.13" x2="2009.73" y2="3275.15" gradientTransform="matrix(-1, 0, 0, 1, 3479.72, 0)" xlink:href="#linear-gradient-6"/><linearGradient id="linear-gradient-21" x1="97.12" y1="3099.7" x2="120.49" y2="2367.46" gradientTransform="matrix(-1, 0, 0, 1, 1667.88, 0)" xlink:href="#linear-gradient-4"/><linearGradient id="linear-gradient-22" x1="2287.37" y1="1958.15" x2="2380.36" y2="3494.49" gradientTransform="translate(-694.25)" xlink:href="#linear-gradient-5"/><linearGradient id="linear-gradient-23" x1="12.84" y1="1929.71" x2="106.23" y2="1929.71" gradientTransform="matrix(-1, 0, 0, 1, 1667.88, 0)" xlink:href="#linear-gradient-6"/><linearGradient id="linear-gradient-24" x1="9830.87" y1="-1860.79" x2="9994.47" y2="-1900.6" gradientTransform="matrix(-0.88, -0.48, -0.48, 0.88, 1534.21, 1095.14)" xlink:href="#linear-gradient-6"/><linearGradient id="linear-gradient-25" x1="-476.32" y1="571.39" x2="-307.81" y2="571.39" gradientTransform="matrix(-0.88, -0.48, -0.48, 0.88, 1534.21, 1095.14)" xlink:href="#linear-gradient-4"/><linearGradient id="linear-gradient-26" x1="9825.13" y1="-1884.49" x2="9988.73" y2="-1924.31" gradientTransform="matrix(-0.88, -0.48, -0.48, 0.88, 1534.21, 1095.14)" xlink:href="#linear-gradient-6"/><linearGradient id="linear-gradient-27" x1="2065.55" y1="1964.52" x2="2161.38" y2="3547.67" gradientTransform="translate(-694.25)" xlink:href="#linear-gradient-5"/><linearGradient id="linear-gradient-28" x1="2515.12" y1="1944.37" x2="2608.11" y2="3480.71" gradientTransform="translate(-694.25)" xlink:href="#linear-gradient-5"/><linearGradient id="linear-gradient-29" x1="2260.49" y1="999.33" x2="2048.84" y2="1402.48" gradientTransform="matrix(1, 0, 0, 1, 0, 0)" xlink:href="#linear-gradient-6"/><linearGradient id="linear-gradient-30" x1="1868.51" y1="1197.24" x2="1655.47" y2="1559.98" gradientTransform="translate(-229.15)" xlink:href="#linear-gradient-6"/><linearGradient id="linear-gradient-31" x1="3914.44" y1="2390.3" x2="3575.27" y2="1915.45" gradientTransform="matrix(-1, 0, 0, 1, 4550.7, 0)" xlink:href="#linear-gradient-4"/><linearGradient id="linear-gradient-32" x1="-995.09" y1="1763.37" x2="-813.79" y2="2175.88" gradientTransform="matrix(-0.98, -0.21, -0.21, 0.98, 560.76, -113.52)" gradientUnits="userSpaceOnUse"><stop offset="0" stop-color="#a22b25"/><stop offset="1" stop-color="#c0423c"/></linearGradient><linearGradient id="linear-gradient-33" x1="-262.34" y1="3208.37" x2="-179.12" y2="3208.37" gradientTransform="matrix(-1, 0, 0, 1, 310.34, 0)" xlink:href="#linear-gradient-4"/><linearGradient id="linear-gradient-34" x1="-613.98" y1="3536.54" x2="-494.22" y2="2136.88" gradientTransform="matrix(-1, 0, 0, 1, 310.34, 0)" xlink:href="#linear-gradient-32"/><linearGradient id="linear-gradient-35" x1="-648.96" y1="3193.18" x2="-514.31" y2="3193.18" gradientTransform="matrix(-1, 0, 0, 1, 310.34, 0)" xlink:href="#linear-gradient-4"/><linearGradient id="linear-gradient-36" x1="-373.08" y1="3557.37" x2="-253.29" y2="2157.33" gradientTransform="matrix(-1, 0, 0, 1, 310.34, 0)" xlink:href="#linear-gradient-32"/><linearGradient id="linear-gradient-37" x1="2613.59" y1="-5881.5" x2="2431.36" y2="-5429.29" gradientTransform="matrix(-1, 0, 0, 1, 310.34, 0)" gradientUnits="userSpaceOnUse"><stop offset="0" stop-color="#ff928e"/><stop offset="1" stop-color="#fe7062"/></linearGradient><linearGradient id="linear-gradient-38" x1="1837.78" y1="1452.27" x2="1581.3" y2="1742.49" gradientTransform="matrix(1, 0, 0, 1, 0, 0)" xlink:href="#linear-gradient-5"/><linearGradient id="linear-gradient-39" x1="765.97" y1="2291.39" x2="1003.88" y2="1734.59" gradientTransform="matrix(1, 0, 0, 1, 0, 0)" xlink:href="#linear-gradient-32"/><linearGradient id="linear-gradient-40" x1="-829.64" y1="1933.67" x2="-633.35" y2="1584.34" gradientTransform="matrix(-0.98, -0.19, -0.19, 0.98, 539.43, -99.24)" xlink:href="#linear-gradient-32"/><linearGradient id="linear-gradient-41" x1="9980.51" y1="16757.15" x2="9641.34" y2="16282.31" gradientTransform="matrix(-0.98, -0.19, -0.19, 0.98, 539.43, -99.24)" xlink:href="#linear-gradient-4"/><linearGradient id="linear-gradient-42" x1="-793.36" y1="1961.79" x2="-597.08" y2="1612.47" gradientTransform="matrix(-0.98, -0.19, -0.19, 0.98, 539.43, -99.24)" xlink:href="#linear-gradient-32"/><linearGradient id="linear-gradient-43" x1="-1042.53" y1="1747.97" x2="-919.6" y2="2027.66" xlink:href="#linear-gradient-32"/><linearGradient id="linear-gradient-44" x1="-210.43" y1="1709.5" x2="-163.28" y2="1709.5" gradientTransform="translate(1475.77)" xlink:href="#linear-gradient-32"/><linearGradient id="linear-gradient-45" x1="580.67" y1="2429.36" x2="1157.71" y2="1584.04" gradientTransform="matrix(1, 0, 0, 1, 0, 0)" xlink:href="#linear-gradient-32"/><linearGradient id="linear-gradient-46" x1="3312.21" y1="1755.97" x2="3410.86" y2="1892.33" gradientTransform="matrix(-1, 0, 0, 1, 4550.7, 0)" xlink:href="#linear-gradient-32"/><linearGradient id="linear-gradient-47" x1="7057.31" y1="3560.66" x2="7063.6" y2="3371.98" gradientTransform="translate(-4009.63)" xlink:href="#linear-gradient-5"/><linearGradient id="linear-gradient-48" x1="7281.48" y1="3077.78" x2="6892.74" y2="3383.02" gradientTransform="translate(-4009.63)" xlink:href="#linear-gradient-4"/><linearGradient id="linear-gradient-49" x1="-2376.32" y1="3082.45" x2="-2397.42" y2="3266.6" gradientTransform="matrix(-1, 0, 0, 1, 663.87, 0)" xlink:href="#linear-gradient-32"/><linearGradient id="linear-gradient-50" x1="-2018.09" y1="3168.37" x2="-2394.02" y2="3463.55" gradientTransform="matrix(-1, 0, 0, 1, 663.87, 0)" xlink:href="#linear-gradient-4"/><linearGradient id="linear-gradient-51" x1="-2126.5" y1="3677.34" x2="-2120.21" y2="3488.66" gradientTransform="matrix(-1, 0, 0, 1, 663.87, 0)" xlink:href="#linear-gradient-5"/><linearGradient id="linear-gradient-52" x1="-2154.04" y1="3106.01" x2="-2173.78" y2="3278.27" gradientTransform="matrix(-1, 0, 0, 1, 663.87, 0)" xlink:href="#linear-gradient-32"/><linearGradient id="linear-gradient-53" x1="-2864.11" y1="2028.42" x2="-3745.5" y2="3424.9" gradientTransform="matrix(-1, 0, 0, 1, -435.6, 0)" xlink:href="#linear-gradient-5"/><linearGradient id="linear-gradient-54" x1="-4173.12" y1="1915.05" x2="-4078.5" y2="1915.05" gradientTransform="matrix(-1, 0, 0, 1, -1147.97, 0)" xlink:href="#linear-gradient-32"/><linearGradient id="linear-gradient-55" x1="3568.17" y1="622.22" x2="3385.93" y2="1074.43" gradientTransform="matrix(1, 0, 0, 1, 0, 0)" xlink:href="#linear-gradient-37"/><linearGradient id="linear-gradient-56" x1="4617.73" y1="-861.01" x2="4435.49" y2="-408.79" gradientTransform="translate(-847.27 -114.55) rotate(-9.14)" xlink:href="#linear-gradient-37"/><linearGradient id="linear-gradient-57" x1="5666.79" y1="1690.12" x2="5612.77" y2="1867.61" gradientTransform="translate(-3045)" xlink:href="#linear-gradient-32"/><linearGradient id="linear-gradient-58" x1="3773.24" y1="704.86" x2="3591.01" y2="1157.07" gradientTransform="matrix(1, 0, 0, 1, 0, 0)" xlink:href="#linear-gradient-37"/><linearGradient id="linear-gradient-59" x1="3343.01" y1="1785.02" x2="3188.16" y2="2110.22" gradientTransform="matrix(1, 0, 0, 1, 0, 0)" xlink:href="#linear-gradient-32"/><linearGradient id="linear-gradient-60" x1="8224.04" y1="6853.76" x2="8291.53" y2="6592.79" gradientTransform="matrix(-1, 0, 0, 1, 12479.12, 0)" xlink:href="#linear-gradient-32"/><linearGradient id="linear-gradient-61" x1="9462.15" y1="1716.32" x2="9593.71" y2="1885.71" gradientTransform="matrix(-1, 0, 0, 1, 12479.12, 0)" xlink:href="#linear-gradient-4"/><linearGradient id="linear-gradient-62" x1="8178.68" y1="6842.03" x2="8246.17" y2="6581.06" gradientTransform="matrix(-1, 0, 0, 1, 12479.12, 0)" xlink:href="#linear-gradient-32"/><linearGradient id="linear-gradient-63" x1="-5920.87" y1="5437.52" x2="-6101.65" y2="5584.05" gradientTransform="translate(1012.7 9790.13) rotate(134.77)" xlink:href="#linear-gradient-32"/><linearGradient id="linear-gradient-64" x1="4799.98" y1="3071.1" x2="4990.16" y2="3503.81" gradientTransform="translate(-3308.16 -113.52) rotate(-12.16)" xlink:href="#linear-gradient-6"/><linearGradient id="linear-gradient-65" x1="4750.22" y1="3054.94" x2="4879.17" y2="3348.32" gradientTransform="translate(-3308.16 -113.52) rotate(-12.16)" xlink:href="#linear-gradient-6"/><linearGradient id="linear-gradient-66" x1="-6146.06" y1="1762.09" x2="-6096.6" y2="1762.09" gradientTransform="matrix(-1, 0, 0, 1, -4223.18, 0)" xlink:href="#linear-gradient-6"/><linearGradient id="linear-gradient-67" x1="9249.15" y1="1810.83" x2="9352.62" y2="1953.86" gradientTransform="translate(-7298.1)" xlink:href="#linear-gradient-6"/><linearGradient id="linear-gradient-68" x1="2416.63" y1="2306" x2="2301.89" y2="1907.78" gradientTransform="matrix(1, 0, 0, 1, 0, 0)" xlink:href="#linear-gradient-4"/><linearGradient id="linear-gradient-69" x1="2623.58" y1="2883.93" x2="2626.68" y2="3410.52" gradientTransform="matrix(1, 0, 0, 1, 0, 0)" xlink:href="#linear-gradient-5"/><linearGradient id="linear-gradient-70" x1="1743.54" y1="3536.39" x2="1858.86" y2="2188.56" gradientTransform="translate(503.33)" xlink:href="#linear-gradient-6"/><linearGradient id="linear-gradient-71" x1="2276.3" y1="2980.1" x2="2279.4" y2="3410.67" gradientTransform="matrix(1, 0, 0, 1, 0, 0)" xlink:href="#linear-gradient-5"/><linearGradient id="linear-gradient-72" x1="1975.52" y1="3556.45" x2="2090.87" y2="2208.26" gradientTransform="translate(503.33)" xlink:href="#linear-gradient-6"/><linearGradient id="linear-gradient-73" x1="2181.68" y1="2169.09" x2="2624.77" y2="2471.19" gradientTransform="matrix(1, 0, 0, 1, 0, 0)" xlink:href="#linear-gradient-5"/><linearGradient id="linear-gradient-74" x1="2464.79" y1="3017.53" x2="2368.61" y2="2744.19" gradientTransform="matrix(1, 0, 0, 1, 0, 0)" xlink:href="#linear-gradient-4"/><linearGradient id="linear-gradient-75" x1="1730.89" y1="2207.83" x2="1752.56" y2="2049.35" gradientTransform="translate(503.33)" xlink:href="#linear-gradient-6"/><linearGradient id="linear-gradient-76" x1="1676.21" y1="2003.5" x2="1865.23" y2="1667.12" gradientTransform="translate(503.33)" xlink:href="#linear-gradient-6"/><linearGradient id="linear-gradient-77" x1="2405.5" y1="2309.2" x2="2290.76" y2="1910.99" gradientTransform="matrix(1, 0, 0, 1, 0, 0)" xlink:href="#linear-gradient-4"/><linearGradient id="linear-gradient-78" x1="1705.5" y1="2032.06" x2="1894.51" y2="1695.69" gradientTransform="translate(503.33)" xlink:href="#linear-gradient-6"/><linearGradient id="linear-gradient-79" x1="3515.63" y1="2060.74" x2="2626.71" y2="4299.11" gradientTransform="translate(-1038.79)" xlink:href="#linear-gradient-6"/><linearGradient id="linear-gradient-80" x1="293.6" y1="367.37" x2="240.78" y2="540.92" gradientTransform="matrix(-0.89, -0.46, -0.46, 0.89, 2999.61, 1500.27)" xlink:href="#linear-gradient-6"/><linearGradient id="linear-gradient-81" x1="1914.1" y1="1681.48" x2="1733.32" y2="1828.01" gradientTransform="matrix(1, 0, 0, 1, 0, 0)" xlink:href="#linear-gradient-6"/></defs><title>123 [Converted]</title><g class="cls-2"><g id="Illustration"><path class="cls-3" d="M3129.82,2337c-271.11,630.46-993.28,983.65-1619.55,888.38-101.91-15.51-381.29-61.69-628.65-279.54-476.17-419.4-578-1249.86-193.89-1835.1,279.57-426,780.72-667.42,1256.92-655.34,102.57,2.6,495.67,18.64,841.13,300,50.74,41.32,162.66,139.52,263.53,295.3C3286.15,1416.51,3306.51,1926.15,3129.82,2337Z" transform="translate(-452.61 -455)"/><g class="cls-4"><path class="cls-5" d="M1201.21,1821.31s7-296-129.31-375.26S676.31,1317.29,666.6,892.22c-5.69-248.85-11.85-357.66-16-405.1a28,28,0,0,1,33.09-30c129.14,24.33,548.63,124.46,636.58,410.79C1424.56,1207.34,1201.21,1821.31,1201.21,1821.31Z" transform="translate(-452.61 -455)"/><path class="cls-6" d="M783.58,575.38c141.75,126.42,305.65,350.16,393,573.9,11.21,36.87,44,115.29,58.26,254.61,12.72,116.2,6.4,239-9,320.26a9.48,9.48,0,0,1-11.07,7.54c-8.84-1.68-7.66-11.18-7.58-10.88,17.62-138.87,10.31-311.71-30.07-467.66C1125.54,1061.66,1010.5,876,891.51,718.53L879.26,703c-92.18-118.39-111.59-119.27-103-127.52A5.39,5.39,0,0,1,783.58,575.38Z" transform="translate(-452.61 -455)"/></g><path class="cls-6" d="M1364.68,2329.34c19.75,9.68-187-250.24-251.7-658.46-30.51-192.37-30.9-433.39-140.48-526.27-91.2-77.3-401.55-28.49-503.09-9.95a15.23,15.23,0,0,0-7.08,26.64c48.69,40.9,152.86,137.36,180,234.58C678.11,1524,799.94,1605.53,909,1627.58s169.74,43.47,222.87,217.89S1308.57,2301.83,1364.68,2329.34Z" transform="translate(-452.61 -455)"/><path class="cls-7" d="M612.23,1188.8c129.55,5.43,268.62,64.53,339.19,175.38l6.66,10.58c15.38,24.81,102.57,201.13,151,347.3a3.48,3.48,0,0,1-2.21,4.39,3.54,3.54,0,0,1-4.35-2.08c-33.74-82.57-82.2-187.26-120.79-265.55-41.39-85.42-70.35-143.28-164.75-198.69-105.07-59.68-205.45-65.83-205.15-65.77a2.77,2.77,0,0,1-2.49-3A2.8,2.8,0,0,1,612.23,1188.8Z" transform="translate(-452.61 -455)"/><ellipse class="cls-5" cx="1919.08" cy="1903.71" rx="1174.26" ry="1267.5" transform="translate(-519.58 3282.46) rotate(-87.49)"/><path class="cls-8" d="M962.91,1125.75c-27.82,44.66-49.27,94.94-45.25,147.41,4.67,60.75,35.42,117.64,37,178.55,2.68,103.29-77.07,189.76-101.94,290-27.8,112.11,77,239.84,118.79,302.41s23.82-50.77,49.14-95,79.94,186,165.25,236.48c45.76,27.1,99.46,45.14,132.38,86.92,48,60.94,34.7,147.66,27.5,224.9s3.58,171.38,73.15,205.71c41,20.22,93,13.38,130,40.22,64.91,47.13,33.9,149.89,59.63,225.87,28,82.63,83.43,83.72,169.25,101.24s-10.81-171,29.39-236.91c21.13-34.63,53.39-62.19,70-99.18,23.11-51.3,16.6-119.84,61.44-153.83,33.61-25.48,80.38-18.59,122.55-19s93.47-18.67,98.25-60.57c4.25-37.18-33-66.83-69.39-75.45s-75.22-4.5-111-15.52c-102.3-31.49-150-174.64-256.84-181.34-91.32-5.73-167.8,96.77-257.53,78.87-50-10-84.26-54.28-121.39-89.26-47.69-44.92-106.89-78.64-144.76-132.11s-44.31-139,9.56-176.24c40-27.71,96.88-16.46,136.42,11.93s66.46,70.52,95.49,109.58c9,12.07,19.12,24.57,33.47,29.06,38.6,12.09,66.77-42.23,57.53-81.61s-37.06-74-38.36-114.46c-2.31-71.26,74.43-116.47,141.75-140s146.66-51.47,166.45-120c7-24.19,5.16-50.81,15.83-73.62,35.35-75.6,221.93-113.34,177.34-157.18s-186.16-53.36-213.72-141.65c-9.87-31.61-20-73.38-53-76.44-53.7-5-84.35,61.49-129.39,72.9-21.38,5.42-23.44,41.74-22.61,86.41a58.72,58.72,0,0,1-117.42,2.22,90.68,90.68,0,0,1,6.83-36.33c8.67-21.26,25.14-38.26,41.75-54.11,69.28-66.15,276-138.84,232.72-167s-251.06-105.87-282.06-63,20.27,6.57,32.77,57.43-153.7,44-230.55,66.07c-12.69,3.63-26.76,7.17-38.64,1.42-13.28-6.43-18.87-21.88-26.08-34.76-38.59-69-167-24.2-167-24.2S987.77,1085.84,962.91,1125.75Z" transform="translate(-452.61 -455)"/><path class="cls-8" d="M1543.54,812.83c-18.65,34.79,36.84,34.22,42.36,73.31,49.95,5.44,70.46-73.31,119.86-82.51,27.88-5.18,54.92,14.79,70.07,38.76s22.21,52.12,35.05,77.41c28.78,56.65,88.18,96.52,151.51,101.68,13.78,1.12,29,.24,39.34-8.9,30.1-26.53-13-76.37-1.78-114.91,12.79-44,76.29-37.35,119.2-53.5,11.84-4.46,102.89-28.75,104.35-41.32,2.6-22.27-39.64-36.45-86.89-48.6-80.06-20.58-220.92-19.73-289.77-13.5-91.6,8.29-244.22,1.59-303.3,72.08Z" transform="translate(-452.61 -455)"/><path class="cls-8" d="M3071.14,2308.81a1154.67,1154.67,0,0,0-5.08-392.79c-6.43-34.5-21.49-75.64-56.24-80.61-40.19-5.74-89.39,40.43-114.56,8.56-11.1-14.06-6.67-34.54-.38-51.32A340.15,340.15,0,0,1,2970.59,1674c20.59-20.93,44.15-39.49,60-64.2,33.91-52.86,10.1-130.11-37.89-170.61s-109.91,32.13-160.36,3.29-52-98.78-61.5-156.11c-7-42.46-38.32-157.52-72.88-101.48s46.11,279.07,136.89,386c11,12.9,23,27.34,22.12,44.24-2.21,40.34-61,38.54-100.54,46.8-49,10.23-124-16-82.58,69.31,21.84,45,126.16,106.57,98.13,136.68s-114.2,117.32-154.64,187.84-60,158.36-29.53,233.72,122.17,127.4,197,95.65c35-14.86,73.21-45.75,105.77-26.07,29.48,17.83,25.13,60.62,23.67,95.05s18.39,80.12,51.88,72c11-2.66,19.69-11,27.13-19.57C3040.41,2452.38,3059.82,2379.7,3071.14,2308.81Z" transform="translate(-452.61 -455)"/><ellipse class="cls-9" cx="1397.87" cy="1363.99" rx="994.59" ry="939.57"/><g class="cls-10"><path class="cls-11" d="M2273,1923.87c-.3,207-14.46,414.51-50.8,618.62-9.2,51-19.87,101.73-32.6,152s-27.5,100-45.55,148.72c-18.2,48.55-39.33,96.41-68,140.11-14.43,21.69-30.8,42.46-51,59.52a144.88,144.88,0,0,1-33.3,21.5,99.69,99.69,0,0,1-38.81,9.17,98,98,0,0,1-39.24-7.23c-12.41-4.94-23.74-12.12-34.07-20.32-20.64-16.53-37.37-37.07-52.06-58.59s-27.17-44.52-38.5-67.91-21.32-47.41-30.46-71.7c-18.28-48.6-33.17-98.36-46-148.57s-23.64-100.94-32.92-151.91c-18.52-102-31.13-204.91-39.62-308.13s-12.61-206.81-13.07-310.4c-.22-51.78,1.09-103.56,2.9-155.31s4.69-103.46,8.46-155.1c7.56-103.28,18.91-206.33,35.82-308.54,8.49-51.09,18.39-102,30.32-152.39s25.84-100.41,43.09-149.33c8.67-24.44,18.15-48.61,29-72.21s22.88-46.69,37.08-68.5,30.6-42.45,51-59c10.18-8.21,21.39-15.36,33.67-20.21a94.87,94.87,0,0,1,38.69-6.9,102.33,102.33,0,0,1,38.24,9,149.45,149.45,0,0,1,33.26,20.8c20.32,16.54,37.14,36.77,52.07,58a555.15,555.15,0,0,1,39.57,67.08c11.74,23.15,22.2,46.91,31.85,71,19.24,48.17,35.11,97.59,48.93,147.53s25.42,100.47,35.5,151.28C2256.23,1509.31,2272.41,1716.8,2273,1923.87Zm-12.77,0c.15-103.23-3.81-206.49-12.42-309.36s-21.43-205.43-40.6-306.85c-9.57-50.71-20.72-101.12-34-151s-28.65-99.16-47.33-147.21c-9.38-24-19.56-47.7-31-70.77a550.86,550.86,0,0,0-38.57-66.77c-14.55-21.13-31-41.19-50.66-57.52a144.91,144.91,0,0,0-32.12-20.51c-11.56-5.2-24-8.59-36.7-8.92a90.24,90.24,0,0,0-37,6.93,126,126,0,0,0-32.38,19.86c-19.67,16.31-35.6,36.82-49.44,58.38s-25.58,44.62-36.07,68.12-19.71,47.59-28.1,72c-16.7,48.78-30.08,98.68-41.53,149s-20.82,101.09-28.81,152.08c-15.93,102-26.31,204.84-32.91,307.87s-9.08,206.32-8.91,309.57q-.3,154.83,11,309.42c7.8,102.92,19.71,205.59,37.51,307.24,8.91,50.82,19.32,101.38,31.79,151.42s27,99.58,44.79,147.9c8.91,24.15,18.7,48,29.71,71.2s23.25,45.86,37.49,67.15,30.48,41.31,50.18,57.28a129.81,129.81,0,0,0,32.17,19.49,89.3,89.3,0,0,0,36.45,6.91,93,93,0,0,0,36.09-8.8,138.14,138.14,0,0,0,31.5-20.66c19.27-16.51,35.15-36.88,49.16-58.25,27.83-43.08,48.48-90.61,66.2-138.88s31.91-98,44.28-148.06,22.61-100.66,31.44-151.49c17.66-101.68,29.42-204.35,37.24-307.28S2260.22,2027.12,2260.19,1923.87Z" transform="translate(-452.61 -455)"/><path class="cls-11" d="M2795.24,1923.87c-.68,133.24-17.77,266.55-53.4,395.05-36.23,128.22-90.82,251.59-165,362.37A1043.21,1043.21,0,0,1,2450.71,2836c-47,47.24-98.9,89.67-155.31,125.2s-117.44,63.71-181.28,82.94a676.45,676.45,0,0,1-394.19.14c-63.87-19.18-124.89-47.47-181.4-82.83s-108.45-77.89-155.48-125.12a1043.24,1043.24,0,0,1-126.32-154.65c-74.33-110.8-129-234.22-165.38-362.48-35.9-128.53-52.95-262-53.5-395.31a1568.47,1568.47,0,0,1,13.58-199.44,1437.39,1437.39,0,0,1,40.14-195.81c36.44-128.22,91.2-251.57,165.56-362.27a1043,1043,0,0,1,126.34-154.51c47-47.17,99-89.54,155.44-124.94a751.5,751.5,0,0,1,181.28-82.57,672.41,672.41,0,0,1,393.67.13A751.3,751.3,0,0,1,2295,887.15c56.4,35.44,108.31,77.84,155.27,125a1042.24,1042.24,0,0,1,126.13,154.54c74.24,110.69,128.9,234,165.2,362.16C2777.32,1657.33,2794.49,1790.62,2795.24,1923.87Zm-14.64,0c-.25-132-16.74-264.1-51.61-391.49-35.11-127.19-88-249.94-160.64-360.3a1033.34,1033.34,0,0,0-123.73-154.31c-46.2-47.15-97.22-89.78-153-125.23-55.84-35.26-116.14-63.62-179.35-82.81a658.57,658.57,0,0,0-390.41.13c-63.18,19.24-123.44,47.64-179.23,82.94-55.72,35.48-106.69,78.14-152.81,125.31a1032.77,1032.77,0,0,0-123.54,154.33C1193.73,1282.79,1141,1405.5,1106,1532.63a1444.69,1444.69,0,0,0-38.56,193.93,1503.78,1503.78,0,0,0,.1,394.61,1443.06,1443.06,0,0,0,38.68,193.88c35,127.09,87.87,249.72,160.46,360a1032.9,1032.9,0,0,0,123.54,154.19c46.13,47.1,97.07,89.73,152.78,125.12,55.78,35.22,116,63.45,179.11,82.68a654.78,654.78,0,0,0,389.9.15c63.12-19.19,123.4-47.38,179.23-82.57,55.76-35.36,106.76-78,152.95-125A1032.5,1032.5,0,0,0,2568,2675.39c72.72-110.27,125.65-232.95,160.82-360.09C2763.71,2188,2780.28,2055.85,2780.6,1923.87Z" transform="translate(-452.61 -455)"/><path class="cls-11" d="M890.56,1468.87l264.17-1.78,264.17-1,528.35-.81,528.34.89,264.17,1.11,264.18,1.91a.66.66,0,0,1,.64.65.65.65,0,0,1-.64.65l-264.18,1.91-264.17,1.1-528.34.9-528.35-.81-264.17-1-264.17-1.77a1,1,0,1,1,0-1.92Z" transform="translate(-452.61 -455)"/><path class="cls-11" d="M1197,1026.4l187.55-1.78,187.56-1c62.51-.43,125-.38,187.55-.51l187.56-.3,375.11.9,187.55,1.1c62.52.65,125,1,187.55,1.92a.64.64,0,0,1,.64.65.65.65,0,0,1-.64.64c-62.51.88-125,1.27-187.55,1.92l-187.55,1.1-375.11.89-187.56-.29c-62.52-.14-125-.09-187.55-.52l-187.56-1L1197,1028.32a1,1,0,1,1,0-1.92Z" transform="translate(-452.61 -455)"/><path class="cls-11" d="M798.75,1911.33l287.13-1.77,287.12-1,574.25-.82,574.24.9,287.13,1.1,287.12,1.92a.65.65,0,0,1,0,1.29l-287.12,1.92-287.13,1.1-574.24.9L1373,1916l-287.12-1-287.13-1.77a1,1,0,0,1-1-1A1,1,0,0,1,798.75,1911.33Z" transform="translate(-452.61 -455)"/><path class="cls-11" d="M890.56,2353.8l264.17-1.77,264.17-1,528.35-.81,528.34.9,264.17,1.1,264.18,1.92a.65.65,0,0,1,0,1.29l-264.18,1.92-264.17,1.1-528.34.89-528.35-.81-264.17-1-264.17-1.78a1,1,0,1,1,0-1.92Z" transform="translate(-452.61 -455)"/><path class="cls-11" d="M2735.27,2800.6H1234.83a3.38,3.38,0,1,1,0-6.75H2735.27a3.38,3.38,0,0,1,0,6.75Z" transform="translate(-452.61 -455)"/></g><circle class="cls-12" cx="2612.58" cy="1080.53" r="494.13" transform="translate(-451.46 1708.86) rotate(-45)"/><circle class="cls-13" cx="2612.58" cy="1080.53" r="477.7" transform="translate(-451.46 1708.86) rotate(-45)"/><circle class="cls-14" cx="2602.18" cy="1090.94" r="404.31" transform="translate(-461.86 1704.55) rotate(-45)"/><path class="cls-6" d="M3006.49,887.14a5,5,0,0,0,4.5-7.32c-76.37-151.31-229-245.3-398.41-245.3a449.52,449.52,0,0,0-80.45,7.24,5,5,0,0,0,1.81,9.93,439.54,439.54,0,0,1,78.64-7.08c165.54,0,314.75,91.87,389.4,239.76A5,5,0,0,0,3006.49,887.14Z" transform="translate(-452.61 -455)"/><g class="cls-15"><path class="cls-16" d="M2395.23,963.62v182.73a186.89,186.89,0,0,0,41.2,117.05l4,4.47s.16.38.19.41c33.15,38.65,81.82,62.93,136,62l82.78-1.35c98.37-1.61,177.15-85.88,177.15-187.46V1003.06Z" transform="translate(-452.61 -455)"/><path class="cls-17" d="M2470,1471.14c35.48,11,91.51,25.89,160.23,21.29a440.89,440.89,0,0,0,124.3-26.74V1274.45L2470,1278.72Z" transform="translate(-452.61 -455)"/><path class="cls-18" d="M2839,1077.56s-225.62,114.65-239.84,184.26c-82.56,1.89-118.61-75.4-118.61-75.4l-74.08-174,5.16-66.34,427,72Z" transform="translate(-452.61 -455)"/><path class="cls-19" d="M2866.94,990.32l5.87,4.92c20.78,17.39,26.88,45.68,14.23,63.71l-85.9,122.44c-13.37,19.06-41.56,20.17-63.57,1.95l-2.16-1.78c-22-18.25-29.51-48.94-16.06-68L2805.73,991C2818.45,973,2846.12,972.89,2866.94,990.32Z" transform="translate(-452.61 -455)"/><path class="cls-20" d="M2798.91,903.85l4,3.31c22,18.38,27.3,49.79,12.48,70.72l-100.69,142.2c-15.68,22.14-47.29,24.52-70.62,5.28s-29.53-52.9-13.76-75.06L2731.51,908C2746.41,887,2776.87,885.44,2798.91,903.85Z" transform="translate(-452.61 -455)"/><path class="cls-21" d="M2712.72,831.85l6.25,5.22c22.12,18.48,27.44,50,12.54,70.92L2630.28,1050.3c-15.77,22.16-47,24.9-70.47,5.56l-2.3-1.9c-23.48-19.37-30.19-53.52-14.34-75.7L2645,835.84C2660,814.88,2690.57,813.34,2712.72,831.85Z" transform="translate(-452.61 -455)"/><path class="cls-22" d="M2613.89,800.87c20.63,17.21,27,45.52,14.35,63.28l-86.18,120.58c-13.42,18.77-41.52,19.81-63.36,1.78l-2.14-1.76c-21.88-18-29.17-48.35-15.68-67.13L2543.94,802C2558.69,781.41,2590,781,2613.89,800.87Z" transform="translate(-452.61 -455)"/><path class="cls-23" d="M2595.66,1330l-10.37.17c-57.5.94-109.18-25.36-144.42-67.18,0,0,0-.22-.06-.25l-3.93-4.94L2341,1140c-28.23-34.68-42.48-79.6-39.8-125.31,3-51.9,42.05-93.81,91.49-98.38l.94-.1,146.73-13.6c28.52-2.65,53.77,18.93,57.1,48.78a83.6,83.6,0,0,1-2.58,31.81c-7.16,25.6-26.32,46.65-52.06,54.53L2495,1052.3s87.19,6.18,102.6,156C2601,1241.24,2600.9,1281.83,2595.66,1330Z" transform="translate(-452.61 -455)"/><path class="cls-24" d="M2597.55,1207.93c-26-135.84-207.41-154.57-176.82-154.16,34,.48,34-77.45,34-77.45s30.93,39,39.22,48.82,97.65-43,97.65-43a13.18,13.18,0,0,1,3.3,1c-7.16,25.6-26.32,46.65-52.06,54.53L2495,1052.3S2582.14,1058.16,2597.55,1207.93Z" transform="translate(-452.61 -455)"/></g><path class="cls-25" d="M1740,3239.24a9.25,9.25,0,0,0-.24-2.38c-11.88-47.09-60.45-71.23-60.45-71.23l-23.36,1.83c-13.43,41.51-22.09,61.77-19.94,73.11.06.31.16.62.24.93C1655.49,3243.22,1695.16,3244.34,1740,3239.24Z" transform="translate(-452.61 -455)"/><path class="cls-26" d="M1636.22,3241.5a10.13,10.13,0,0,0,7.42,7.48c27.41,5.77,71,1.13,89.27-1.27,4-.52,7-4.25,7.06-8.47C1695.16,3244.34,1655.49,3243.22,1636.22,3241.5Z" transform="translate(-452.61 -455)"/><path class="cls-27" d="M1698.52,3129.28l-10.23,49.23a8.06,8.06,0,0,1-6.88,6.63,68.29,68.29,0,0,1-15.85-.25c-5.28-.78-9-6.14-8-11.89l7.11-43.72Z" transform="translate(-452.61 -455)"/><path class="cls-28" d="M1437.73,3241.09c25-.7,37.85-3.64,44.52-6.37,0,2.48,0,5-.07,7.62a4.93,4.93,0,0,1-4.71,5l-137-.88c-4.37,0-6.92-5.1-5-9.11C1353.41,3238.85,1399.16,3242.17,1437.73,3241.09Z" transform="translate(-452.61 -455)"/><path class="cls-29" d="M1335.45,3237.36a7.23,7.23,0,0,1,.54-1c12.1-16.91,42.91-50.57,103.8-65.17l29.21-.92s13,22.61,13.25,64.48c-6.67,2.73-19.57,5.67-44.52,6.37C1399.16,3242.17,1353.41,3238.85,1335.45,3237.36Z" transform="translate(-452.61 -455)"/><path class="cls-30" d="M1474.42,3126c-.33,2.18-4.33,35.27-5.88,48.1a6.36,6.36,0,0,1-5.36,5.74c-5,.6-13,1.14-20.06-.31a8.63,8.63,0,0,1-6.55-8.67v-51.94Z" transform="translate(-452.61 -455)"/><path class="cls-31" d="M1679,2482.69s46.74,415.48,20.77,675.15c0,0-31.16,0-46.74-5.19,0,0-48.57-406.23-64.28-522.48a3.91,3.91,0,0,0-7.71-.24c-19.39,97.79-95.53,481.3-104.59,517.52,0,0-26,10.39-46.74,0,0,0,41.55-555.7,72.71-654.37Z" transform="translate(-452.61 -455)"/><path class="cls-32" d="M1772.48,1999.7s-197.35-31.16-353.16,10.38l10.39,161s41.55,223.32,72.71,322c0,0,119.45,20.77,176.58-10.39,0,0,46.74-280.45,72.71-322C1751.71,2160.69,1777.67,2051.63,1772.48,1999.7Z" transform="translate(-452.61 -455)"/><path class="cls-33" d="M1635.38,1857.79l19.66,133s-54.92,25.23-93.39-1.08l8.28-93.83Z" transform="translate(-452.61 -455)"/><path class="cls-34" d="M1550.73,1771.21c-.61,1.13-12.46,68.17-19.76,109.67a29.12,29.12,0,0,0,27,34.1l15.92.94a56.71,56.71,0,0,0,59.42-48l11.5-75.17S1565.77,1744,1550.73,1771.21Z" transform="translate(-452.61 -455)"/><path class="cls-35" d="M1661.94,1792.89c6.1-7.58,11.42-19.85-1.57-32.76-13.15-13.06-28.08-9.8-37.54-5.42a10.47,10.47,0,0,1-12.34-2.45,6.68,6.68,0,0,0-6.21-2.3,9.79,9.79,0,0,1-11.07-8.52c-1.12-9.42-6.14-20.52-22.81-23.74-30.58-5.91-45.83,24.68-45.28,46.19s34.05,26,53.07,22.46c14-2.63,26,9.65,31.46,16.35a10.09,10.09,0,0,1,2,8.66l-4.83,20.78c3.34,6.46,6.63,13,11.33,18.56a20.55,20.55,0,0,0,11,7.09c5.7-10.61,21.64-12.41,29-12.65a10.12,10.12,0,0,0,7.34-3.48c5.59-6.41,14.34-20.71-2.4-34.76A10.09,10.09,0,0,1,1661.94,1792.89Z" transform="translate(-452.61 -455)"/><path class="cls-36" d="M1623.67,1880s.66-37.52,15.85-41,31.56,7.46,18.57,29.91C1641.94,1896.84,1623.67,1880,1623.67,1880Z" transform="translate(-452.61 -455)"/><path class="cls-37" d="M1522.78,2194.09s-452.58-134.6-231.16-446.76l18.56,24.46s-63.64,221.4,157.35,241.49C1467.53,2013.28,1524.77,2160.9,1522.78,2194.09Z" transform="translate(-452.61 -455)"/><path class="cls-38" d="M1683.65,2179s445.93-121.38,224.51-433.54l-15,21.21s66.71,211.43-154.28,231.52C1738.9,1998.21,1681.66,2145.83,1683.65,2179Z" transform="translate(-452.61 -455)"/><path class="cls-39" d="M1909.66,1747.09s3.51-50.42-26.63-55.44-38.66,15.26-43.68,30.32,45.2,45.21,55.24,45.21S1909.66,1747.09,1909.66,1747.09Z" transform="translate(-452.61 -455)"/><path class="cls-40" d="M1293.39,1755.41s-5-60.27,25.11-65.3,40.18,25.11,45.21,40.18-45.21,45.2-55.25,45.2S1293.39,1755.41,1293.39,1755.41Z" transform="translate(-452.61 -455)"/><path class="cls-41" d="M874.18,1733.25c2.12.61-31.58,50.17-32.72,51.61-38.41,48.67-82.29,99.54-134.5,133.71-59.25,38.77-163,41.73-185.5,120.19-18,62.86,5.49,127.55,55.22,168.91,25.33,21.06,58.69,30.1,83.17,52.06,34.72,31.15,23.56,67.73,24.26,109.59,1,61.52,31,102.8,89.56,123.76,119.44,42.77,403.18-161.39,258.56-411.92s-58-319.11-58-319.11Z" transform="translate(-452.61 -455)"/><path class="cls-42" d="M1271.26,1710.9s-146,231-319.72,275.62c0,0,33.84,96.39,60,107.42,0,0,213.66-178.28,268.57-350.22Z" transform="translate(-452.61 -455)"/><path class="cls-43" d="M572.58,3188.42l-4.73,38.91a16.07,16.07,0,0,1-14.1,14.06c-12.48,1.43-32.49,2.89-52.08.82a13.77,13.77,0,0,1-11.56-17.86c4.77-15,13.51-37.57,26.1-50.84h43.17A13.3,13.3,0,0,1,572.58,3188.42Z" transform="translate(-452.61 -455)"/><path class="cls-44" d="M910.67,2732.58l7.29,42.86s-24.4,247.14-28.74,346a77.51,77.51,0,0,0,11.46,44l42.43,68.89-107.83-63.62-2.14-13.16,17.65-24.27-23.12-276.86a84.93,84.93,0,0,1,9.67-47l22.3-41.89Z" transform="translate(-452.61 -455)"/><path class="cls-45" d="M950.21,3244.33H915.8a20.71,20.71,0,0,1-16.44-8.06c-10.73-13.94-33-41.13-43.58-41.84-14.31-1-12.48,49.9-12.48,49.9h-8l-10.15-63.2a37.4,37.4,0,0,1,19.63-39.1h0s3.27,24.19,21,34.88,72.15,49,72.15,49a49.27,49.27,0,0,1,14,.37C962.76,3228.25,961.24,3244.33,950.21,3244.33Z" transform="translate(-452.61 -455)"/><path class="cls-46" d="M763,2752.94s-142.93,271.13-165.66,333-30.68,113.55-31,118.44c-.48,7.64-10,15-36.18,15-13.52,0-20.14-5.42-23.38-10.67a15.26,15.26,0,0,1-.58-14.79c8.27-16.73,34.5-70.21,44.22-94.46,11.6-29,36.56-160.18,50.25-205.81s29.16-95.12,88.76-140.71C689.44,2752.94,730.36,2712.86,763,2752.94Z" transform="translate(-452.61 -455)"/><path class="cls-47" d="M853.28,2308.68c36.87-156.24-56.53-244.6-56.53-244.6,58.94-56.58,166.32-82.32,166.32-82.32s102.46,74.91,90.31,133.55c-7.13,34.36-72,205.84-72,205.84S921.34,2349.55,853.28,2308.68Z" transform="translate(-452.61 -455)"/><path class="cls-48" d="M771.54,2386c15-45.2,81.74-77.34,81.74-77.34,68.06,40.87,128.07,12.47,128.07,12.47s13.46,51.44,4.17,99.25-67.56,355-67.56,355c-91.83,18.61-233.06-18.72-233.06-18.72C743.39,2652.88,756.53,2431.23,771.54,2386Z" transform="translate(-452.61 -455)"/><path class="cls-49" d="M896.08,1878.52l-30,134.64c-2.87,11.86,7.95,9.92,19.94,7.66,19.63-3.7,44.94-11.32,53.4-26.6a14.76,14.76,0,0,0,1.54-5.08l12.88-93.37a16.78,16.78,0,0,0-9.82-17.62l-24.85-11A16.77,16.77,0,0,0,896.08,1878.52Z" transform="translate(-452.61 -455)"/><path class="cls-50" d="M953.5,1755.77s31.91,21.6,45.62,76.62-8.57,74.74-31.41,73.54-56-8.28-84.67-47.75S911.68,1729.37,953.5,1755.77Z" transform="translate(-452.61 -455)"/><path class="cls-51" d="M912,1836s-11.69-78.83,53.76-66.77L979,1783s32-36.08-3.41-63.35-84.65-20.29-111.87,29.36-37.09,84.54-14.28,115.39,40,4.39,40,4.39-10.46-26.7-1.78-38.16,19.88,6.66,19.88,6.66Z" transform="translate(-452.61 -455)"/><path class="cls-52" d="M907.54,1848.37s-5.77-40.56-26.49-29,7.47,37.88,18.77,46.83Z" transform="translate(-452.61 -455)"/><path class="cls-53" d="M1269,1758.45c.42,4.77-16.35,8.06-21.69-12.25,1.46-8.82,4.07-47.44,10.47-53.44,34.1-32,62.44-28.09,62.44-28.09,3.16,11.08,7.78,20.87,8.31,33.52a38.83,38.83,0,0,1-9,26.21c-6,7.29-14.17,16.71-21.5,23.85C1284.21,1761.78,1269,1758.45,1269,1758.45Z" transform="translate(-452.61 -455)"/><path class="cls-54" d="M1286,1742.91l-5.57-2.42c1.55-4,15.34-39.2,22.33-46.91,2.53-2.8,3.82-5.26,3.71-7.12a4.66,4.66,0,0,0-1.17-2.67l-24.1,13.62-10.77,17.82-5.08-3.43,11.62-19.22,29.18-16.48,1.56,1.34c3,2.61,4.58,5.43,4.77,8.63.22,3.78-1.54,7.67-5.37,11.91C1301.85,1703.78,1290.08,1732.38,1286,1742.91Z" transform="translate(-452.61 -455)"/><path class="cls-55" d="M796.75,2064.08s-166,340.72-226,370.51c0,0-61,6.37-98.36,17.67-9.4,2.84-9.08,16.18.39,18.76,26,7.1,69.09,13,108.58-8.41,0,0-21.22,31.79-8.84,44.18,0,0,28.28-33.58,38.89-44.18,9.33-9.34,179.28-194.61,250.72-306.35,5.77-9,1.77-35.86-2.24-45.8C850.61,2087.6,830.13,2051.08,796.75,2064.08Z" transform="translate(-452.61 -455)"/><path class="cls-56" d="M1260.55,1690.9s19-34.08,25.41-26.37,8.23,8.38,4.29,20.15,3.45,37.33-7.31,45.4S1263.72,1732.77,1260.55,1690.9Z" transform="translate(-452.61 -455)"/><path class="cls-6" d="M607,2193.73a1.49,1.49,0,0,0,1.15-.56,1.47,1.47,0,0,0-.23-2.07c-22.78-18.22-46.61-46.9-59.31-71.35-8.76-16.87-13.08-44.33-4.39-64.16a129.54,129.54,0,0,1,21.29-33.3,1.48,1.48,0,0,0-.14-2.09,1.49,1.49,0,0,0-2.08.14,132.58,132.58,0,0,0-21.77,34.06c-8.13,18.55-6.29,46,4.48,66.71,12.86,24.78,37,53.84,60.08,72.29A1.46,1.46,0,0,0,607,2193.73Z" transform="translate(-452.61 -455)"/><path class="cls-6" d="M634.08,1972.27a1.52,1.52,0,0,0,.59-.12c9.93-4.33,20.2-8.42,30.14-12.38,17.62-7,35.83-14.26,53-23.17,36.26-18.87,85.54-52.84,114.37-107.43a1.48,1.48,0,0,0-2.61-1.39c-28.47,53.93-77.23,87.52-113.12,106.2-17,8.85-35.13,16.07-52.68,23.06-10,4-20.25,8-30.23,12.4a1.48,1.48,0,0,0,.59,2.83Z" transform="translate(-452.61 -455)"/><path class="cls-6" d="M976.68,1768.53a1.47,1.47,0,0,0,1.43-1.12c.21-.86,5-21.26-5.41-35.23-5.68-7.59-14.76-11.74-27-12.31a1.43,1.43,0,0,0-1.54,1.4,1.48,1.48,0,0,0,1.41,1.55c11.3.53,19.63,4.28,24.76,11.13,9.62,12.86,4.95,32.56,4.91,32.76a1.47,1.47,0,0,0,1.08,1.78A1.34,1.34,0,0,0,976.68,1768.53Z" transform="translate(-452.61 -455)"/><path class="cls-57" d="M3111.2,3241.89a9.52,9.52,0,0,0-.24-2.42c-12-47.71-61.25-72.17-61.25-72.17l-23.67,1.86c-13.61,42.05-22.38,62.58-20.2,74.07.06.32.16.63.25.94C3025.61,3245.91,3065.8,3247.05,3111.2,3241.89Z" transform="translate(-452.61 -455)"/><path class="cls-58" d="M3006.09,3244.17a10.23,10.23,0,0,0,7.51,7.58c27.77,5.85,71.92,1.15,90.45-1.28,4.09-.53,7.08-4.31,7.15-8.58C3065.8,3247.05,3025.61,3245.91,3006.09,3244.17Z" transform="translate(-452.61 -455)"/><path class="cls-59" d="M3069.2,3130.47l-10.36,49.89a8.16,8.16,0,0,1-7,6.71,69,69,0,0,1-16.06-.26c-5.35-.78-9.07-6.21-8.12-12l7.2-44.29Z" transform="translate(-452.61 -455)"/><path class="cls-60" d="M2805,3243.76c25.28-.71,38.35-3.69,45.11-6.45,0,2.51,0,5.07-.08,7.72a5,5,0,0,1-4.76,5.08l-138.8-.9c-4.43,0-7-5.17-5.1-9.23C2719.54,3241.49,2765.89,3244.85,2805,3243.76Z" transform="translate(-452.61 -455)"/><path class="cls-61" d="M2701.34,3240a6.21,6.21,0,0,1,.55-1.05c12.25-17.12,43.48-51.23,105.17-66l29.6-.94s13.17,22.91,13.42,65.34c-6.76,2.76-19.83,5.74-45.11,6.45C2765.89,3244.85,2719.54,3241.49,2701.34,3240Z" transform="translate(-452.61 -455)"/><path class="cls-62" d="M2842.14,3127.12c-.33,2.21-4.38,35.74-5.95,48.74a6.45,6.45,0,0,1-5.43,5.81c-5,.6-13.2,1.15-20.33-.31a8.76,8.76,0,0,1-6.64-8.79v-52.63Z" transform="translate(-452.61 -455)"/><path class="cls-63" d="M3049.42,2475.33s47.36,421,21,684.08c0,0-31.57,0-47.35-5.26,0,0-49.22-411.6-65.14-529.38a4,4,0,0,0-7.81-.25c-19.64,99.09-96.79,487.67-106,524.36,0,0-26.31,10.53-47.36,0,0,0,42.1-563,73.67-663Z" transform="translate(-452.61 -455)"/><path class="cls-64" d="M3005.23,1842.17l19.92,134.71s-55.65,25.57-94.62-1.1l8.39-95.07Z" transform="translate(-452.61 -455)"/><path class="cls-65" d="M3128.59,1983.81c-49.94-6.33-210.72-22.41-342.27,12.67l10.52,163.13s42.1,226.27,73.67,326.25c0,0,121,21,178.91-10.53,0,0,47.36-284.15,73.68-326.25,0,0,21.55-90.54,21.74-146.74A18.59,18.59,0,0,0,3128.59,1983.81Z" transform="translate(-452.61 -455)"/><path class="cls-66" d="M2894.82,2175.08s-470.73-50.23-297.57-401.94l18.6,19s-22,214.21,204.76,198.58C2820.61,1990.74,2891.43,2141.18,2894.82,2175.08Z" transform="translate(-452.61 -455)"/><path class="cls-67" d="M2564,1787.2s-5.15-61.73,25.72-66.88,41.16,25.73,46.3,41.16-46.3,46.3-56.59,46.3S2564,1787.2,2564,1787.2Z" transform="translate(-452.61 -455)"/><path class="cls-68" d="M3143.4,1991.24c41,48.46,269.46,340.15-66.16,458.46v-26.37s137.15-116,31.65-274.3c0,0,14.47-119.73,25.06-155.84A5.48,5.48,0,0,1,3143.4,1991.24Z" transform="translate(-452.61 -455)"/><path class="cls-69" d="M3074.6,2426s-47.47-31.65-68.57-21.1-21.1,26.37-21.1,26.37,10.55,21.1,26.37,15.83,52.75,5.27,68.58,0C3079.88,2447.07,3085.15,2426,3074.6,2426Z" transform="translate(-452.61 -455)"/><path class="cls-70" d="M2920.23,1752.69s-25.42,58.38-27.12,89-8.31,50.53,27.12,56.7,65.28-11.48,81.45-42c0,0,25.33-47,19.65-66.3S2920.23,1752.69,2920.23,1752.69Z" transform="translate(-452.61 -455)"/><path class="cls-71" d="M2989.57,1834.46h-4.48s18.46-37.85,2.24-44.5-80.45-19.75-94.31-42.54c-13.36-22-1.44-50.36,16.38-58.3a2.4,2.4,0,0,1,3,1.12l1.47,2.79a2.41,2.41,0,0,0,4.44-.45h0a2.4,2.4,0,0,1,4.32-.66c4.24,6.81,15.73,17.9,46.54,23.58,43.71,8.07,72.61,25.76,73.32,56a2.41,2.41,0,0,0,3.73,2c3.23-2,8.39-2.89,15.3,2.91,12,10.1,7.09,36.28-19.23,57.82a2.39,2.39,0,0,0,.12,3.86c4.77,3.1,11.88,10.49-6.55,20.34-18.85,10.08-30,9-34.21,7.9a2.41,2.41,0,0,1-1.83-2.49l1.66-26.77a2.41,2.41,0,0,0-2.4-2.56Z" transform="translate(-452.61 -455)"/><path class="cls-72" d="M2988.47,1840.06s9.69-37.29,26.41-26.83-8.67,41.78-22.12,43.18Z" transform="translate(-452.61 -455)"/><path class="cls-73" d="M1338.92,1665.35c13.65,22.87,18.22,44.42,8,63.8-19.54,3.87-34.91-3-46-20.69C1301.56,1673.52,1310.38,1652.58,1338.92,1665.35Z" transform="translate(-452.61 -455)"/><path class="cls-74" d="M1916.67,1763.55s153.2,242.32,335.37,289.12c0,0-35.5,101.1-62.9,112.67,0,0-224.12-187-281.71-367.36Z" transform="translate(-452.61 -455)"/><path class="cls-75" d="M1919,1813.44c-.44,5,17.16,8.45,22.76-12.86-1.54-9.25-4.27-49.76-11-56.06-35.77-33.52-65.49-29.45-65.49-29.45-3.32,11.61-8.16,21.89-8.71,35.15a40.65,40.65,0,0,0,9.41,27.5c6.33,7.65,14.86,17.52,22.55,25C1903.09,1816.93,1919,1813.44,1919,1813.44Z" transform="translate(-452.61 -455)"/><path class="cls-76" d="M1901.21,1797.13l5.85-2.53c-1.62-4.19-16.09-41.12-23.42-49.21-2.66-2.94-4-5.52-3.9-7.47a5,5,0,0,1,1.23-2.8l25.28,14.28,11.3,18.69,5.33-3.59-12.19-20.16-30.61-17.29-1.64,1.41c-3.17,2.73-4.81,5.7-5,9-.23,4,1.61,8,5.63,12.49C1884.58,1756.08,1896.92,1786.08,1901.21,1797.13Z" transform="translate(-452.61 -455)"/><path class="cls-77" d="M1927.9,1742.58s-20-35.76-26.66-27.67-8.63,8.79-4.49,21.14-3.62,39.16,7.67,47.62S1924.58,1786.49,1927.9,1742.58Z" transform="translate(-452.61 -455)"/><path class="cls-78" d="M2298.79,1784.38s21.94,9.68,46.46,53.56c12.11,21.67,28.45,69.42,31.93,113.29,1.79,22.65,12.53,40.79,27,44.24,36,8.62,91.43,37.79,100.31,135.34,6.77,74.46-17.54,102.69-43.05,112.46-18.74,7.18-31.19,35.63-27.4,65.17,3.64,28.33-1.79,61.09-33.22,87-70.44,58-140.78-137.5-140.78-137.5l-14.42-341.42Z" transform="translate(-452.61 -455)"/><path class="cls-79" d="M2585.58,3201.16l4.56,37.47a15.47,15.47,0,0,0,13.58,13.54c12,1.37,31.28,2.78,50.14.79a13.27,13.27,0,0,0,11.14-17.2c-4.6-14.46-13-36.18-25.14-49h-41.57A12.8,12.8,0,0,0,2585.58,3201.16Z" transform="translate(-452.61 -455)"/><path class="cls-80" d="M2260,2762.2l-7,41.28s23.5,238,27.68,333.17a74.66,74.66,0,0,1-11,42.4l-40.85,66.34,103.82-61.27,2.07-12.67-17-23.37,22.27-266.6a81.81,81.81,0,0,0-9.31-45.24l-21.48-40.35Z" transform="translate(-452.61 -455)"/><path class="cls-81" d="M2221.94,3255h33.13a20,20,0,0,0,15.84-7.76c10.32-13.42,31.73-39.61,42-40.29,13.77-.92,12,48.05,12,48.05h7.72l9.79-60.85a36,36,0,0,0-18.91-37.66h0s-3.15,23.29-20.22,33.59-69.49,47.19-69.49,47.19a47.48,47.48,0,0,0-13.46.36C2209.85,3239.52,2211.31,3255,2221.94,3255Z" transform="translate(-452.61 -455)"/><path class="cls-82" d="M2402.22,2781.81s137.64,261.09,159.52,320.7,29.55,109.34,29.84,114c.46,7.36,9.61,14.41,34.84,14.41,13,0,19.4-5.22,22.52-10.27a14.69,14.69,0,0,0,.55-14.24c-8-16.11-33.22-67.61-42.58-91-11.17-27.89-35.21-154.26-48.39-198.2s-28.08-91.59-85.47-135.49C2473.05,2781.81,2433.65,2743.21,2402.22,2781.81Z" transform="translate(-452.61 -455)"/><path class="cls-83" d="M2315.27,2354c-35.5-150.44,57.34-223.93,57.34-223.93-4-47.92-106.24-77.38-146.75-87.21a33.78,33.78,0,0,0-29.58,6.85c-26.5,22.05-82.69,74.7-73.69,118.09C2129.45,2200.88,2192,2366,2192,2366S2249.73,2393.36,2315.27,2354Z" transform="translate(-452.61 -455)"/><path class="cls-84" d="M2394,2428.48c-14.45-43.53-78.72-74.49-78.72-74.49-65.54,39.37-123.32,12-123.32,12s-13,49.53-4,95.57S2253,2803.47,2253,2803.47c88.43,17.92,224.43-18,224.43-18C2421.09,2685.45,2408.44,2472,2394,2428.48Z" transform="translate(-452.61 -455)"/><path class="cls-85" d="M2274.06,1939.76l28.87,129.67c2.76,11.42-7.65,9.55-19.2,7.37-18.91-3.56-43.28-10.91-51.43-25.62a13.87,13.87,0,0,1-1.47-4.89l-12.41-89.91a16.16,16.16,0,0,1,9.46-17l23.93-10.61A16.15,16.15,0,0,1,2274.06,1939.76Z" transform="translate(-452.61 -455)"/><path class="cls-86" d="M2240.19,1816.31s-34.19,14.43-57.43,63.84-5.89,72.21,15.92,75.34,54.41,2.65,88.9-29.26S2284.63,1799.2,2240.19,1816.31Z" transform="translate(-452.61 -455)"/><path class="cls-87" d="M2264.4,1899.86s25.79-72.28-38.29-73.13L2211,1837.26s-23.51-40.07,15.08-59.2,83.75-3.33,100.18,48.67,19.22,86.79-8.1,111.66-38.58-3.33-38.58-3.33,14.88-23.26,8.82-35.71-20,2.58-20,2.58Z" transform="translate(-452.61 -455)"/><path class="cls-88" d="M2260.63,1913.86s13-37.23,30.44-22.4-14.14,34.39-26.49,40.73Z" transform="translate(-452.61 -455)"/><path class="cls-89" d="M2319.78,2203.17s420.34-48,253.36-418.41l-26.87,23s48,261-185.85,297.79C2360.42,2105.58,2317.79,2169.92,2319.78,2203.17Z" transform="translate(-452.61 -455)"/><path class="cls-90" d="M2577.1,1802.67s32.12-51.36,7.59-69.66-47.3,3.93-58.68,15,19.51,61,28.46,65.6S2577.1,1802.67,2577.1,1802.67Z" transform="translate(-452.61 -455)"/><path class="cls-91" d="M1836.63,1733.83c5.65-22,15.26-38.61,30.93-47a13.83,13.83,0,0,1,16,2.26c10.9,10.57,14.42,24.34,10.43,41.37C1868.75,1754.6,1847.67,1763.08,1836.63,1733.83Z" transform="translate(-452.61 -455)"/></g></g></svg>